<svg xmlns="http://www.w3.org/2000/svg" version="1.1" xmlns:xlink="http://www.w3.org/1999/xlink" xmlns:svgjs="http://svgjs.dev/svgjs" width="1000" height="1000" viewBox="0 0 1000 1000"><rect width="1000" height="1000" fill="#ffffff"></rect><g transform="matrix(0.7,0,0,0.7,149.57575757575756,282.1265587044535)"><svg viewBox="0 0 396 247" data-background-color="#ffffff" preserveAspectRatio="xMidYMid meet" height="623" width="1000" xmlns="http://www.w3.org/2000/svg" xmlns:xlink="http://www.w3.org/1999/xlink"><g id="tight-bounds" transform="matrix(1,0,0,1,0.2400000000000091,-0.09999999999999432)"><svg viewBox="0 0 395.52 247.2" height="247.2" width="395.52"><g><svg></svg></g><g><svg viewBox="0 0 395.52 247.2" height="247.2" width="395.52"><g transform="matrix(1,0,0,1,75.54432,74.79182108626198)"><svg viewBox="0 0 244.43135999999998 97.61635782747604" height="97.61635782747604" width="244.43135999999998"><g><svg viewBox="0 0 244.43135999999998 97.61635782747604" height="97.61635782747604" width="244.43135999999998"><g><svg viewBox="0 0 244.43135999999998 97.61635782747604" height="97.61635782747604" width="244.43135999999998"><g><svg viewBox="0 0 244.43135999999998 97.61635782747604" height="97.61635782747604" width="244.43135999999998"><g id="textblocktransform"><svg viewBox="0 0 244.43135999999998 97.61635782747604" height="97.61635782747604" width="244.43135999999998" id="textblock"><g><svg viewBox="0 0 244.43135999999998 97.61635782747604" height="97.61635782747604" width="244.43135999999998"><g transform="matrix(1,0,0,1,0,0)"><svg width="244.43135999999998" viewBox="4.400000095367432 -37 93.88999938964844 37.5" height="97.61635782747604" data-palette-color="#755bb4"><path d="M6.4-35L18.1-35Q20.85-35 23.05-33.65 25.25-32.3 26.53-29.95 27.8-27.6 27.8-24.6L27.8-24.6Q27.8-21.65 26.53-19.25 25.25-16.85 23.05-15.45 20.85-14.05 18.1-14.05L18.1-14.05 7.95-14.05 8.3-14.65 8.3-2.05Q8.3-1.2 7.75-0.6 7.2 0 6.35 0L6.35 0Q5.45 0 4.93-0.6 4.4-1.2 4.4-2.05L4.4-2.05 4.4-33Q4.4-33.85 4.98-34.43 5.55-35 6.4-35L6.4-35ZM7.95-17.9L18.1-17.9Q19.75-17.9 21-18.8 22.25-19.7 23-21.25 23.75-22.8 23.75-24.6L23.75-24.6Q23.75-26.5 23-27.95 22.25-29.4 21-30.28 19.75-31.15 18.1-31.15L18.1-31.15 7.95-31.15 8.3-31.7 8.3-17.4 7.95-17.9ZM33.4-25.7L33.4-25.7 45.15-25.7Q45.95-25.7 46.47-25.15 47-24.6 47-23.85L47-23.85Q47-23.05 46.47-22.53 45.95-22 45.15-22L45.15-22 33.4-22Q32.65-22 32.1-22.55 31.55-23.1 31.55-23.9L31.55-23.9Q31.55-24.65 32.1-25.18 32.65-25.7 33.4-25.7ZM38.65-32.5L38.65-32.5Q39.5-32.5 40.05-31.93 40.6-31.35 40.6-30.5L40.6-30.5 40.6-6.35Q40.6-5.15 40.95-4.55 41.3-3.95 41.87-3.73 42.45-3.5 43-3.5L43-3.5Q43.5-3.5 43.87-3.68 44.25-3.85 44.75-3.85L44.75-3.85Q45.25-3.85 45.67-3.38 46.1-2.9 46.1-2.15L46.1-2.15Q46.1-1.25 45.05-0.63 44 0 42.7 0L42.7 0Q42 0 40.97-0.1 39.95-0.2 38.95-0.75 37.95-1.3 37.27-2.58 36.6-3.85 36.6-6.15L36.6-6.15 36.6-30.5Q36.6-31.35 37.2-31.93 37.8-32.5 38.65-32.5ZM73.34-37L73.34-37Q74.25-37 74.8-36.43 75.34-35.85 75.34-35L75.34-35 75.34-2.05Q75.34-1.2 74.77-0.6 74.2 0 73.34 0L73.34 0Q72.5 0 71.92-0.6 71.34-1.2 71.34-2.05L71.34-2.05 71.34-6.8 72.3-7.15Q72.3-5.95 71.57-4.63 70.84-3.3 69.52-2.15 68.2-1 66.45-0.25 64.7 0.5 62.65 0.5L62.65 0.5Q59.25 0.5 56.55-1.25 53.85-3 52.27-6.05 50.7-9.1 50.7-13L50.7-13Q50.7-16.95 52.27-20 53.85-23.05 56.52-24.78 59.2-26.5 62.55-26.5L62.55-26.5Q64.65-26.5 66.47-25.8 68.3-25.1 69.7-23.9 71.09-22.7 71.87-21.25 72.65-19.8 72.65-18.35L72.65-18.35 71.34-18.65 71.34-35Q71.34-35.85 71.92-36.43 72.5-37 73.34-37ZM63.05-3.2L63.05-3.2Q65.59-3.2 67.5-4.48 69.4-5.75 70.5-7.98 71.59-10.2 71.59-13L71.59-13Q71.59-15.85 70.5-18.05 69.4-20.25 67.47-21.53 65.55-22.8 63.05-22.8L63.05-22.8Q60.6-22.8 58.67-21.53 56.75-20.25 55.65-18.05 54.55-15.85 54.55-13L54.55-13Q54.55-10.25 55.65-8.03 56.75-5.8 58.67-4.5 60.6-3.2 63.05-3.2ZM84.74 0L84.74 0Q83.89 0 83.32-0.6 82.74-1.2 82.74-2.05L82.74-2.05 82.74-23.85Q82.74-24.7 83.32-25.28 83.89-25.85 84.74-25.85L84.74-25.85Q85.64-25.85 86.19-25.28 86.74-24.7 86.74-23.85L86.74-23.85 86.74-17.25 86.14-18.3Q86.44-19.85 87.22-21.33 87.99-22.8 89.19-23.98 90.39-25.15 91.94-25.83 93.49-26.5 95.34-26.5L95.34-26.5Q96.44-26.5 97.37-25.98 98.29-25.45 98.29-24.5L98.29-24.5Q98.29-23.45 97.74-22.95 97.19-22.45 96.49-22.45L96.49-22.45Q95.84-22.45 95.24-22.73 94.64-23 93.74-23L93.74-23Q92.49-23 91.27-22.33 90.04-21.65 89.02-20.4 87.99-19.15 87.37-17.57 86.74-16 86.74-14.2L86.74-14.2 86.74-2.05Q86.74-1.2 86.17-0.6 85.59 0 84.74 0Z" opacity="1" transform="matrix(1,0,0,1,0,0)" fill="#755bb4" class="wordmark-text-0" data-fill-palette-color="primary" id="text-0"></path></svg></g></svg></g></svg></g></svg></g><g></g></svg></g></svg></g></svg></g><g><path d="M98.897 51.747A122.216 122.216 0 0 1 296.623 51.747L287.819 51.747A113.413 113.413 0 0 0 107.701 51.747L98.897 51.747M98.897 195.453A122.216 122.216 0 0 0 296.623 195.453L287.819 195.453A113.413 113.413 0 0 1 107.701 195.453L98.897 195.453" fill="rgba(130, 209, 235, 0.911)" stroke="transparent" data-fill-palette-color="tertiary"></path></g></svg></g><defs></defs></svg><rect width="395.52" height="247.2" fill="none" stroke="none" visibility="hidden"></rect></g></svg></g></svg>